<svg id="Calque_1" data-name="Calque 1" xmlns="http://www.w3.org/2000/svg" viewBox="0 0 170.23 466.67"><defs><style>.cls-1{fill:#1d1d1b;}</style></defs><path class="cls-1" d="M124.27,287.81a85,85,0,0,0-35.43-7.27c-.67,0-1.3.07-2,.08v35.54c.33,0,.64-.07,1-.07,24.79,0,34.9,30.34,34.9,58.71,0,32.3-12.4,59.37-35.23,59.37-23.48,0-35.88-26.74-35.88-59H2.76c0,.33,0,.64,0,1,0,59,35.22,93.62,84.15,93.62h0c16.49,0,30.78-6.19,37.82-15.22h1v14.25H173V3.06H124.69V288Z" transform="translate(-2.73 -3.06)"/></svg>